<?plantuml 1.2026.1?><svg xmlns="http://www.w3.org/2000/svg" xmlns:xlink="http://www.w3.org/1999/xlink" contentStyleType="text/css" data-diagram-type="ACTIVITY" height="588px" preserveAspectRatio="none" style="width:460px;height:588px;background:#FFFFFF;" version="1.1" viewBox="0 0 460 588" width="460px" zoomAndPan="magnify"><defs/><g><ellipse cx="211.7935" cy="20" fill="#222222" rx="10" ry="10" style="stroke:#222222;stroke-width:1;"/><rect fill="#F1F1F1" height="33.9688" rx="12.5" ry="12.5" style="stroke:#181818;stroke-width:0.5;" width="158.4863" x="132.5503" y="50"/><text fill="#000000" font-family="sans-serif" font-size="12" lengthAdjust="spacing" textLength="138.4863" x="142.5503" y="71.1387">Ingest FundingRequest</text><rect fill="#F1F1F1" height="33.9688" rx="12.5" ry="12.5" style="stroke:#181818;stroke-width:0.5;" width="236.4219" x="93.5825" y="103.9688"/><text fill="#000000" font-family="sans-serif" font-size="12" lengthAdjust="spacing" textLength="216.4219" x="103.5825" y="125.1074">Collect counterparties &amp; documents</text><polygon fill="#F1F1F1" points="173.9487,157.9375,249.6382,157.9375,261.6382,169.9375,249.6382,181.9375,173.9487,181.9375,161.9487,169.9375,173.9487,157.9375" style="stroke:#181818;stroke-width:0.5;"/><text fill="#000000" font-family="sans-serif" font-size="11" lengthAdjust="spacing" textLength="75.6895" x="173.9487" y="173.7456">Enough data?</text><text fill="#000000" font-family="sans-serif" font-size="11" lengthAdjust="spacing" textLength="19.0083" x="142.9404" y="167.3433">yes</text><text fill="#000000" font-family="sans-serif" font-size="11" lengthAdjust="spacing" textLength="13.7017" x="261.6382" y="167.3433">no</text><rect fill="#F1F1F1" height="33.9688" rx="12.5" ry="12.5" style="stroke:#181818;stroke-width:0.5;" width="131.8906" x="37.9692" y="191.9375"/><text fill="#000000" font-family="sans-serif" font-size="12" lengthAdjust="spacing" textLength="111.8906" x="47.9692" y="213.0762">Run AI risk scoring</text><rect fill="#F1F1F1" height="33.9688" rx="12.5" ry="12.5" style="stroke:#181818;stroke-width:0.5;" width="259.625" x="189.8599" y="191.9375"/><text fill="#000000" font-family="sans-serif" font-size="12" lengthAdjust="spacing" textLength="239.625" x="199.8599" y="213.0762">Request enrichment from ERP/Assistant</text><polygon fill="#F1F1F1" points="211.7935,231.9063,223.7935,243.9063,211.7935,255.9063,199.7935,243.9063,211.7935,231.9063" style="stroke:#181818;stroke-width:0.5;"/><rect fill="#F1F1F1" height="33.9688" rx="12.5" ry="12.5" style="stroke:#181818;stroke-width:0.5;" width="150.0605" x="136.7632" y="275.9063"/><text fill="#000000" font-family="sans-serif" font-size="12" lengthAdjust="spacing" textLength="130.0605" x="146.7632" y="297.0449">Query fintech lenders</text><rect fill="#F1F1F1" height="33.9688" rx="12.5" ry="12.5" style="stroke:#181818;stroke-width:0.5;" width="156.5645" x="133.5112" y="329.875"/><text fill="#000000" font-family="sans-serif" font-size="12" lengthAdjust="spacing" textLength="136.5645" x="143.5112" y="351.0137">Normalize term sheets</text><polygon fill="#F1F1F1" points="174.6497,383.8438,248.9373,383.8438,260.9373,395.8438,248.9373,407.8438,174.6497,407.8438,162.6497,395.8438,174.6497,383.8438" style="stroke:#181818;stroke-width:0.5;"/><text fill="#000000" font-family="sans-serif" font-size="11" lengthAdjust="spacing" textLength="74.2876" x="174.6497" y="399.6519">Offers found?</text><text fill="#000000" font-family="sans-serif" font-size="11" lengthAdjust="spacing" textLength="19.0083" x="143.6414" y="393.2495">yes</text><text fill="#000000" font-family="sans-serif" font-size="11" lengthAdjust="spacing" textLength="13.7017" x="260.9373" y="393.2495">no</text><rect fill="#F1F1F1" height="33.9688" rx="12.5" ry="12.5" style="stroke:#181818;stroke-width:0.5;" width="131.6035" x="46.2441" y="417.8438"/><text fill="#000000" font-family="sans-serif" font-size="12" lengthAdjust="spacing" textLength="111.6035" x="56.2441" y="438.9824">Rank by scorecard</text><rect fill="#F1F1F1" height="33.9688" rx="12.5" ry="12.5" style="stroke:#181818;stroke-width:0.5;" width="202.0918" x="11" y="471.8125"/><text fill="#000000" font-family="sans-serif" font-size="12" lengthAdjust="spacing" textLength="182.0918" x="21" y="492.9512">Prepare rationale &amp; sensitivity</text><rect fill="#F1F1F1" height="33.9688" rx="12.5" ry="12.5" style="stroke:#181818;stroke-width:0.5;" width="156.8984" x="233.0918" y="417.8438"/><text fill="#000000" font-family="sans-serif" font-size="12" lengthAdjust="spacing" textLength="136.8984" x="243.0918" y="438.9824">Escalate: no-offer path</text><polygon fill="#F1F1F1" points="211.7935,511.7813,223.7935,523.7813,211.7935,535.7813,199.7935,523.7813,211.7935,511.7813" style="stroke:#181818;stroke-width:0.5;"/><ellipse cx="211.7935" cy="566.7813" fill="none" rx="11" ry="11" style="stroke:#222222;stroke-width:1;"/><ellipse cx="211.7935" cy="566.7813" fill="#222222" rx="6" ry="6" style="stroke:#222222;stroke-width:1;"/><line style="stroke:#181818;stroke-width:1;" x1="211.7935" x2="211.7935" y1="30" y2="50"/><polygon fill="#181818" points="207.7935,40,211.7935,50,215.7935,40,211.7935,44" style="stroke:#181818;stroke-width:1;"/><line style="stroke:#181818;stroke-width:1;" x1="211.7935" x2="211.7935" y1="83.9688" y2="103.9688"/><polygon fill="#181818" points="207.7935,93.9688,211.7935,103.9688,215.7935,93.9688,211.7935,97.9688" style="stroke:#181818;stroke-width:1;"/><line style="stroke:#181818;stroke-width:1;" x1="161.9487" x2="103.9146" y1="169.9375" y2="169.9375"/><line style="stroke:#181818;stroke-width:1;" x1="103.9146" x2="103.9146" y1="169.9375" y2="191.9375"/><polygon fill="#181818" points="99.9146,181.9375,103.9146,191.9375,107.9146,181.9375,103.9146,185.9375" style="stroke:#181818;stroke-width:1;"/><line style="stroke:#181818;stroke-width:1;" x1="261.6382" x2="319.6724" y1="169.9375" y2="169.9375"/><line style="stroke:#181818;stroke-width:1;" x1="319.6724" x2="319.6724" y1="169.9375" y2="191.9375"/><polygon fill="#181818" points="315.6724,181.9375,319.6724,191.9375,323.6724,181.9375,319.6724,185.9375" style="stroke:#181818;stroke-width:1;"/><line style="stroke:#181818;stroke-width:1;" x1="103.9146" x2="103.9146" y1="225.9063" y2="243.9063"/><line style="stroke:#181818;stroke-width:1;" x1="103.9146" x2="199.7935" y1="243.9063" y2="243.9063"/><polygon fill="#181818" points="189.7935,239.9063,199.7935,243.9063,189.7935,247.9063,193.7935,243.9063" style="stroke:#181818;stroke-width:1;"/><line style="stroke:#181818;stroke-width:1;" x1="319.6724" x2="319.6724" y1="225.9063" y2="243.9063"/><line style="stroke:#181818;stroke-width:1;" x1="319.6724" x2="223.7935" y1="243.9063" y2="243.9063"/><polygon fill="#181818" points="233.7935,239.9063,223.7935,243.9063,233.7935,247.9063,229.7935,243.9063" style="stroke:#181818;stroke-width:1;"/><line style="stroke:#181818;stroke-width:1;" x1="211.7935" x2="211.7935" y1="137.9375" y2="157.9375"/><polygon fill="#181818" points="207.7935,147.9375,211.7935,157.9375,215.7935,147.9375,211.7935,151.9375" style="stroke:#181818;stroke-width:1;"/><line style="stroke:#181818;stroke-width:1;" x1="211.7935" x2="211.7935" y1="255.9063" y2="275.9063"/><polygon fill="#181818" points="207.7935,265.9063,211.7935,275.9063,215.7935,265.9063,211.7935,269.9063" style="stroke:#181818;stroke-width:1;"/><line style="stroke:#181818;stroke-width:1;" x1="211.7935" x2="211.7935" y1="309.875" y2="329.875"/><polygon fill="#181818" points="207.7935,319.875,211.7935,329.875,215.7935,319.875,211.7935,323.875" style="stroke:#181818;stroke-width:1;"/><line style="stroke:#181818;stroke-width:1;" x1="112.0459" x2="112.0459" y1="451.8125" y2="471.8125"/><polygon fill="#181818" points="108.0459,461.8125,112.0459,471.8125,116.0459,461.8125,112.0459,465.8125" style="stroke:#181818;stroke-width:1;"/><line style="stroke:#181818;stroke-width:1;" x1="162.6497" x2="112.0459" y1="395.8438" y2="395.8438"/><line style="stroke:#181818;stroke-width:1;" x1="112.0459" x2="112.0459" y1="395.8438" y2="417.8438"/><polygon fill="#181818" points="108.0459,407.8438,112.0459,417.8438,116.0459,407.8438,112.0459,411.8438" style="stroke:#181818;stroke-width:1;"/><line style="stroke:#181818;stroke-width:1;" x1="260.9373" x2="311.541" y1="395.8438" y2="395.8438"/><line style="stroke:#181818;stroke-width:1;" x1="311.541" x2="311.541" y1="395.8438" y2="417.8438"/><polygon fill="#181818" points="307.541,407.8438,311.541,417.8438,315.541,407.8438,311.541,411.8438" style="stroke:#181818;stroke-width:1;"/><line style="stroke:#181818;stroke-width:1;" x1="112.0459" x2="112.0459" y1="505.7813" y2="523.7813"/><line style="stroke:#181818;stroke-width:1;" x1="112.0459" x2="199.7935" y1="523.7813" y2="523.7813"/><polygon fill="#181818" points="189.7935,519.7813,199.7935,523.7813,189.7935,527.7813,193.7935,523.7813" style="stroke:#181818;stroke-width:1;"/><line style="stroke:#181818;stroke-width:1;" x1="311.541" x2="311.541" y1="451.8125" y2="523.7813"/><line style="stroke:#181818;stroke-width:1;" x1="311.541" x2="223.7935" y1="523.7813" y2="523.7813"/><polygon fill="#181818" points="233.7935,519.7813,223.7935,523.7813,233.7935,527.7813,229.7935,523.7813" style="stroke:#181818;stroke-width:1;"/><line style="stroke:#181818;stroke-width:1;" x1="211.7935" x2="211.7935" y1="363.8438" y2="383.8438"/><polygon fill="#181818" points="207.7935,373.8438,211.7935,383.8438,215.7935,373.8438,211.7935,377.8438" style="stroke:#181818;stroke-width:1;"/><line style="stroke:#181818;stroke-width:1;" x1="211.7935" x2="211.7935" y1="535.7813" y2="555.7813"/><polygon fill="#181818" points="207.7935,545.7813,211.7935,555.7813,215.7935,545.7813,211.7935,549.7813" style="stroke:#181818;stroke-width:1;"/><?plantuml-src PS-nJWCn40JG_hvYAdGf4BslG14AKfeGyWV6jyvPyQqFxnhf-7esH6cWz6haUIFggtPkpsSInMlZCV7vH9_DdaFdNahE51IXD5QgYuKJ2Humbj1cOfMXIn7zZaixJnYz-kSDT296lv9iEi2T6cExHqroWOHIhM3eA0kXvt9BtFf0N5EOhjyYrZ9ZTpe-RKMIg6VJaE5YvzuRrHKn6IXCo7QbQWntA7NsENqJJ3f39g8xxor6oo3QYl6_p_C57-klZOAlut2z7YlPMaBrcWhxJ3PQY2Lf-agw_bcma-2pLtBWybYkRLYyJdUpQ5b-0000?></g></svg>